# xmcd
#
# Track frame offsets:
#	182
#	12160
#	26095
#	40720
#	51675
#	64402
#	76072
#	88617
#	97085
#	108432
#	121805
#	134140
#	144072
#	157940
#
# Disc length: 2324 seconds
#
# Revision: 1
# Processed by: cddbd v1.5.1PL2 Copyright (c) Steve Scherf et al.
# Submitted via: CDmax 2.0
#
DISCID=b809120e
DTITLE=Various Artist - Where the Blues was born CD2
DYEAR=1993
DGENRE=Blues
TTITLE0=John Lee Hooker - I'm in the mood
TTITLE1=Howlin' Wolf - Smokestack Lightnin'
TTITLE2=Muddy Waters - Baby Please Don't Go
TTITLE3=Big Joe Williams - Sinking Blues
TTITLE4=Sonny Boy Williamson - Keep It To Yourself
TTITLE5=Little Walter - My Babe
TTITLE6=Howlin Wolf - Spoonful
TTITLE7=Big Joe Williams - Goin' Away Won't Be Back 'Till Fall
TTITLE8=Sonny Boy Williamson - Your Funeral - My Trial
TTITLE9=Muddy Waters - Rollin' and Thumblin'
TTITLE10=Howlin' Wolf - Goin' Back Home
TTITLE11=John Lee Hooker - Dimples
TTITLE12=Little Walter - Take Me Back
TTITLE13=Muddy Waters - I Got My Mojo Working
EXTD=YEAR: 1993
EXTT0=
EXTT1=
EXTT2=
EXTT3=
EXTT4=
EXTT5=
EXTT6=
EXTT7=
EXTT8=
EXTT9=
EXTT10=
EXTT11=
EXTT12=
EXTT13=
PLAYORDER=
